<?xml version="1.0" encoding="UTF-8" standalone="no"?>
<!-- Created with Inkscape (http://www.inkscape.org/) -->

<svg
   xmlns:dc="http://purl.org/dc/elements/1.1/"
   xmlns:cc="http://creativecommons.org/ns#"
   xmlns:rdf="http://www.w3.org/1999/02/22-rdf-syntax-ns#"
   xmlns:svg="http://www.w3.org/2000/svg"
   xmlns="http://www.w3.org/2000/svg"
   xmlns:sodipodi="http://sodipodi.sourceforge.net/DTD/sodipodi-0.dtd"
   xmlns:inkscape="http://www.inkscape.org/namespaces/inkscape"
   width="1000"
   height="771.86707"
   id="svg3425"
   version="1.1"
   inkscape:version="0.48.2 r9819"
   sodipodi:docname="New document 4">
  <defs
     id="defs3427" />
  <sodipodi:namedview
     id="base"
     pagecolor="#ffffff"
     bordercolor="#666666"
     borderopacity="1.0"
     inkscape:pageopacity="0.0"
     inkscape:pageshadow="2"
     inkscape:zoom="0.35"
     inkscape:cx="648.06236"
     inkscape:cy="-6.2746197"
     inkscape:document-units="px"
     inkscape:current-layer="g3392"
     showgrid="false"
     fit-margin-left="0.5"
     fit-margin-bottom="0.5"
     fit-margin-top="0.5"
     fit-margin-right="0.5"
     inkscape:window-width="1920"
     inkscape:window-height="1028"
     inkscape:window-x="-8"
     inkscape:window-y="-8"
     inkscape:window-maximized="1" />
  <metadata
     id="metadata3430">
    <rdf:RDF>
      <cc:Work
         rdf:about="">
        <dc:format>image/svg+xml</dc:format>
        <dc:type
           rdf:resource="http://purl.org/dc/dcmitype/StillImage" />
        <dc:title></dc:title>
      </cc:Work>
    </rdf:RDF>
  </metadata>
  <g
     inkscape:label="Layer 1"
     inkscape:groupmode="layer"
     id="layer1"
     transform="translate(273.06236,245.7795)">
    <g
       transform="matrix(29.54306,0,0,-29.54306,-15782.524,11453.595)"
       id="g3392">
      <g
         id="g3460">
        <g
           transform="translate(537.638,395.994)"
           id="g3105">
          <path
             id="path3107"
             style="fill:#000000;fill-opacity:1;fill-rule:nonzero;stroke:none"
             d="m 0,0 0,-24.345 5.51,-1.748 0,20.42 c 0,0.956 0.429,1.595 1.113,1.373 C 7.524,-4.549 7.7,-5.431 7.7,-6.387 l 0,-8.155 c 3.432,-1.656 6.135,10e-4 6.135,4.38 0,4.489 -1.581,6.481 -6.247,8.082 C 5.754,-1.462 2.341,-0.433 0,0"
             inkscape:connector-curvature="0" />
        </g>
        <g
           transform="translate(544.193,373.461)"
           id="g3109">
          <path
             id="path3111"
             style="fill:#000000;fill-opacity:1;fill-rule:nonzero;stroke:none"
             d="M 0,0 8.859,3.158 C 9.861,3.517 10.017,4.025 9.202,4.292 8.385,4.56 6.906,4.482 5.901,4.122 L 0,2.044 0,5.354 0.34,5.468 c 0,0 1.706,0.603 4.105,0.868 C 6.843,6.601 9.78,6.302 12.084,5.428 14.683,4.605 14.976,3.396 14.317,2.563 13.655,1.73 12.037,1.135 12.037,1.135 L 0,-3.188 0,0"
             inkscape:connector-curvature="0" />
        </g>
        <g
           transform="translate(527.536,373.794)"
           id="g3113">
          <path
             id="path3115"
             style="fill:#000000;fill-opacity:1;fill-rule:nonzero;stroke:none"
             d="m 0,0 c -2.669,0.751 -3.114,2.315 -1.9,3.216 1.127,0.833 3.036,1.462 3.036,1.462 l 7.898,2.806 0,-3.198 L 3.352,2.251 C 2.346,1.889 2.193,1.382 3.008,1.114 3.825,0.846 5.303,0.922 6.308,1.284 l 2.726,0.987 0,-2.862 C 8.86,-0.623 8.667,-0.653 8.49,-0.683 5.762,-1.129 2.859,-0.944 0,0"
             inkscape:connector-curvature="0" />
        </g>
      </g>
    </g>
  </g>
</svg>
